<?xml version="1.0" standalone="no"?>
<!DOCTYPE svg PUBLIC "-//W3C//DTD SVG 20010904//EN"
 "http://www.w3.org/TR/2001/REC-SVG-20010904/DTD/svg10.dtd">
<svg version="1.0" xmlns="http://www.w3.org/2000/svg"
 width="200.000000pt" height="200.000000pt" viewBox="0 0 200.000000 200.000000"
 preserveAspectRatio="xMidYMid meet">
<metadata>
Created by potrace 1.14, written by Peter Selinger 2001-2017
</metadata>
<g transform="translate(0.000000,200.000000) scale(0.100000,-0.100000)"
fill="#000000" stroke="none">
<path d="M899 1996 c-2 -2 -27 -6 -54 -10 -28 -3 -72 -12 -98 -20 -26 -8 -47
-12 -47 -9 0 3 -6 1 -12 -4 -7 -6 -31 -16 -53 -23 -154 -48 -346 -204 -465
-377 -166 -239 -213 -585 -119 -866 25 -75 79 -191 91 -195 4 -2 8 -9 8 -15 0
-17 86 -125 149 -187 64 -64 162 -140 179 -140 7 0 12 -4 12 -8 0 -14 143 -75
240 -104 88 -25 146 -32 270 -32 154 -1 250 17 385 72 224 90 453 316 533 527
10 28 22 59 27 70 9 23 8 19 31 110 23 94 27 288 7 391 -47 249 -168 450 -368
610 -43 35 -85 64 -92 64 -7 0 -13 4 -13 8 0 8 -36 26 -141 70 -90 39 -218 64
-344 68 -67 2 -123 2 -126 0z m16 -774 l82 -203 30 73 c16 40 54 132 84 205
l54 131 92 1 c51 1 93 -1 93 -4 0 -3 -47 -100 -105 -215 -58 -115 -105 -213
-105 -217 0 -5 40 -7 90 -5 l90 4 0 -52 0 -51 -52 1 c-29 1 -81 1 -114 1 l-62
-1 -3 -42 -4 -43 118 2 118 1 -3 -46 -3 -47 -108 -1 c-59 -1 -110 -4 -113 -7
-3 -3 -6 -53 -6 -111 l0 -106 -94 1 -94 0 0 110 c0 80 -3 109 -12 110 -7 0
-59 0 -115 0 l-103 -1 0 50 0 50 68 -1 c37 0 88 -1 115 0 l47 1 0 40 0 40 -42
1 c-24 1 -76 0 -115 -1 l-73 -1 0 49 0 49 87 2 c48 1 89 4 91 6 2 2 -44 98
-102 214 -58 115 -106 212 -106 216 0 3 44 4 97 3 l97 -3 81 -203z"/>
</g>
</svg>
